<svg width="132" height="29" viewBox="0 0 132 29" fill="none" xmlns="http://www.w3.org/2000/svg">
<path d="M1.41446 21.1513C2.01453 21.1342 2.44315 20.997 2.70033 20.7398C2.9575 20.4827 3.10323 20.1826 3.13752 19.8397C3.17181 19.4797 3.18896 18.8625 3.18896 17.9881V6.87817C3.18896 6.15809 3.21467 5.54087 3.26611 5.02652L1.41446 5.12939V3.99783H13.7845L13.9131 8.49837H13.0644C13.0644 7.09249 12.7558 6.13237 12.1386 5.61802C11.5385 5.10367 10.6899 4.86364 9.59259 4.89794L7.38089 4.94937C6.76367 4.96651 6.31791 5.08653 6.04359 5.30941C5.76927 5.51515 5.59782 5.81519 5.52924 6.20952C5.46066 6.58671 5.42637 7.18678 5.42637 8.00974V12.1245L10.2612 12.1502L10.0812 9.93854H11.2128V15.3392H10.3641C10.3641 14.7048 10.287 14.2248 10.1327 13.899C9.97835 13.5561 9.73832 13.3332 9.41257 13.2304C9.10396 13.1104 8.66676 13.0503 8.10098 13.0503L7.30374 13.0761L5.42637 13.1532V19.0425C5.42637 19.934 5.40065 20.6027 5.34922 21.0485L10.2612 20.9713C11.4614 20.9542 12.3786 20.6541 13.013 20.0712C13.6474 19.4711 13.9645 18.4424 13.9645 16.9851H14.8389L14.6846 22H1.41446V21.1513ZM22.4017 22.4115C21.5958 22.4115 20.8586 22.3 20.19 22.0772C19.5213 21.8714 18.947 21.6057 18.4669 21.2799L18.5698 22.18H17.4896L17.3353 17.7566H18.1326C18.1669 18.4596 18.3555 19.0854 18.6984 19.634C19.0584 20.1826 19.5213 20.6198 20.0871 20.9456C20.67 21.2542 21.2872 21.4085 21.9387 21.4085C22.676 21.4085 23.3275 21.2371 23.8933 20.8942C24.4762 20.5341 24.7677 20.0283 24.7677 19.3768C24.7677 18.8968 24.6219 18.4939 24.3305 18.1681C24.0561 17.8424 23.7047 17.5766 23.276 17.3709C22.8646 17.148 22.2816 16.8908 21.5273 16.5993C20.6186 16.2564 19.8899 15.9393 19.3413 15.6478C18.7926 15.3392 18.3212 14.9277 17.9268 14.4134C17.5325 13.899 17.3353 13.2475 17.3353 12.4588C17.3353 11.8931 17.4725 11.3273 17.7468 10.7615C18.0211 10.1957 18.484 9.71566 19.1355 9.32133C19.7871 8.92699 20.6529 8.72983 21.733 8.72983C22.2645 8.72983 22.8046 8.81555 23.3532 8.987C23.919 9.15845 24.4419 9.44134 24.922 9.83567L24.8705 8.85841H25.9507V13.359H25.1277C25.0763 12.3646 24.7677 11.5073 24.2019 10.7872C23.6532 10.05 22.8731 9.68137 21.8616 9.68137C21.0901 9.68137 20.4729 9.87854 20.0099 10.2729C19.5642 10.6501 19.3413 11.1044 19.3413 11.6359C19.3413 12.1331 19.487 12.5531 19.7785 12.896C20.0871 13.2389 20.4643 13.5304 20.91 13.7704C21.3558 14.0105 21.9559 14.2762 22.7103 14.5677C23.6018 14.9277 24.3219 15.262 24.8705 15.5707C25.4192 15.8793 25.8821 16.2907 26.2593 16.8051C26.6536 17.3023 26.8508 17.9109 26.8508 18.631C26.8508 19.454 26.6365 20.1483 26.2078 20.7141C25.7964 21.2799 25.2477 21.7085 24.5619 22C23.8933 22.2743 23.1732 22.4115 22.4017 22.4115ZM35.309 22.4115C34.1431 22.4115 33.0716 22.1457 32.0943 21.6142C31.1342 21.0827 30.3712 20.3198 29.8054 19.3254C29.2397 18.331 28.9568 17.1566 28.9568 15.8021C28.9568 14.602 29.2397 13.4618 29.8054 12.3817C30.3884 11.2844 31.1856 10.4015 32.1972 9.7328C33.2259 9.06415 34.3831 8.72983 35.669 8.72983C36.5948 8.72983 37.4178 8.87556 38.1379 9.16702C38.858 9.45849 39.4152 9.84425 39.8095 10.3243C40.221 10.8044 40.4267 11.3273 40.4267 11.8931C40.4267 12.2874 40.3153 12.6132 40.0924 12.8703C39.8695 13.1275 39.5609 13.2561 39.1666 13.2561C38.7894 13.2561 38.5065 13.1361 38.3179 12.896C38.1293 12.6389 38.035 12.3731 38.035 12.0988C38.035 11.6702 38.1636 11.3273 38.4208 11.0701C38.2322 10.5386 37.8636 10.1786 37.3149 9.98998C36.7834 9.78424 36.2519 9.68137 35.7204 9.68137C34.9318 9.68137 34.2203 9.89568 33.5859 10.3243C32.9687 10.7529 32.4801 11.3787 32.12 12.2017C31.76 13.0246 31.5799 14.0105 31.5799 15.1592C31.5799 16.3079 31.76 17.328 32.12 18.2195C32.4972 19.1111 33.0201 19.814 33.6888 20.3284C34.3574 20.8256 35.1289 21.0742 36.0033 21.0742C36.7749 21.0742 37.5292 20.8684 38.2665 20.457C39.0208 20.0283 39.6123 19.4968 40.041 18.8625L40.7096 19.3768C40.0753 20.3712 39.2523 21.1256 38.2408 21.64C37.2463 22.1543 36.2691 22.4115 35.309 22.4115ZM46.2716 22.4115C45.02 22.4115 44.0599 22.1286 43.3913 21.5628C42.7398 20.997 42.414 20.2598 42.414 19.3511C42.414 18.3567 42.8083 17.5166 43.597 16.8308C44.4028 16.145 45.4058 15.6392 46.6059 15.3135C47.8232 14.9706 49.0405 14.8077 50.2578 14.8248V13.2304C50.2578 12.1159 50.0949 11.2501 49.7692 10.6329C49.4434 9.99855 48.7491 9.68137 47.6861 9.68137C47.1546 9.68137 46.6488 9.79281 46.1687 10.0157C45.6887 10.2386 45.3372 10.5729 45.1143 11.0187C45.3372 11.2587 45.4487 11.5845 45.4487 11.9959C45.4487 12.2531 45.3544 12.5017 45.1658 12.7417C44.9772 12.9646 44.7029 13.0761 44.3428 13.0761C43.9828 13.0761 43.6999 12.9646 43.4941 12.7417C43.2884 12.5017 43.1855 12.1931 43.1855 11.8159C43.1855 11.2501 43.3998 10.7358 43.8285 10.2729C44.2742 9.79281 44.8829 9.41562 45.6544 9.1413C46.4431 8.86699 47.3175 8.72983 48.2776 8.72983C49.7177 8.72983 50.7807 9.11559 51.4665 9.88711C52.1523 10.6415 52.4866 11.8416 52.4695 13.4875L52.4438 19.274C52.4438 19.8226 52.4095 20.4055 52.3409 21.0227L54.1669 20.9199V22H50.4893C50.4378 21.7428 50.3778 21.2542 50.3092 20.5341C49.0577 21.7857 47.7118 22.4115 46.2716 22.4115ZM46.8631 20.9456C47.5146 20.9456 48.1061 20.8256 48.6376 20.5855C49.1691 20.3284 49.7092 19.9426 50.2578 19.4283C50.2407 19.1711 50.2321 18.7339 50.2321 18.1167L50.2578 15.6992C48.8519 15.7507 47.6003 16.0421 46.5031 16.5736C45.4058 17.088 44.8572 17.8852 44.8572 18.9653C44.8572 19.5997 45.0457 20.0883 45.4229 20.4312C45.8001 20.7741 46.2802 20.9456 46.8631 20.9456ZM55.7002 27.7864C56.1975 27.7864 56.5489 27.6578 56.7547 27.4007C56.9775 27.1606 57.1061 26.852 57.1404 26.4748C57.1747 26.1148 57.2004 25.5061 57.2176 24.6489L57.269 12.2274C57.269 11.5073 57.3033 10.9501 57.3719 10.5558L55.5459 10.6586V9.5785C56.5575 9.5785 57.2519 9.52707 57.6291 9.4242C58.0062 9.30418 58.3149 9.12416 58.5549 8.88413H59.3264C59.395 9.72423 59.4293 10.1871 59.4293 10.2729C59.9436 9.80996 60.5608 9.44134 61.2809 9.16702C62.001 8.87556 62.7125 8.72983 63.4155 8.72983C64.427 8.72983 65.3614 8.99557 66.2187 9.52707C67.0759 10.0414 67.7617 10.7872 68.2761 11.7645C68.8075 12.7246 69.0733 13.839 69.0733 15.1077C69.0733 16.5308 68.7733 17.7995 68.1732 18.9139C67.5731 20.0112 66.7673 20.8684 65.7557 21.4857C64.7613 22.1029 63.6812 22.4115 62.5154 22.4115C61.3324 22.4115 60.3037 22.1286 59.4293 21.5628V25.8319C59.4293 26.6034 59.395 27.1863 59.3264 27.5807L60.9466 27.5035V28.5579H55.7002V27.7864ZM62.4639 21.3828C63.2697 21.3828 63.9641 21.1342 64.547 20.637C65.1471 20.1398 65.61 19.4454 65.9358 18.5539C66.2615 17.6623 66.4244 16.6508 66.4244 15.5192C66.4244 13.9762 66.0901 12.6732 65.4214 11.6102C64.7699 10.53 63.7927 9.98998 62.4896 9.98998C61.9239 9.98998 61.3752 10.1271 60.8437 10.4015C60.3122 10.6758 59.8493 11.0187 59.455 11.4302C59.4721 11.5502 59.4807 12.0731 59.4807 12.9989L59.455 20.3798C60.3294 21.0485 61.3324 21.3828 62.4639 21.3828ZM77.5004 22.4115C76.3174 22.4115 75.2458 22.1372 74.2857 21.5885C73.3427 21.0227 72.5969 20.2255 72.0483 19.1968C71.4996 18.151 71.2253 16.9508 71.2253 15.5964C71.2253 14.3962 71.4996 13.2732 72.0483 12.2274C72.5969 11.1644 73.3599 10.3157 74.3371 9.68137C75.3315 9.04701 76.4545 8.72983 77.7061 8.72983C78.6834 8.72983 79.5663 8.94414 80.355 9.37276C81.1437 9.80138 81.7694 10.4443 82.2324 11.3016C82.6953 12.1417 82.9267 13.1789 82.9267 14.4134L73.8742 14.5677C73.8571 16.6251 74.1914 18.2281 74.8772 19.3768C75.5801 20.5255 76.6603 21.0999 78.1176 21.0999C78.9062 21.0999 79.7121 20.8942 80.535 20.4827C81.3751 20.0712 82.018 19.5654 82.4638 18.9653L83.081 19.4797C82.4295 20.4741 81.5809 21.2113 80.535 21.6914C79.5063 22.1714 78.4948 22.4115 77.5004 22.4115ZM80.5093 13.4875C80.5093 12.4588 80.2778 11.5759 79.8149 10.8387C79.352 10.1014 78.6576 9.7328 77.7318 9.7328C75.6058 9.7328 74.3457 10.9844 73.9514 13.4875H80.5093ZM87.2213 22.4115C86.8099 22.4115 86.4584 22.2572 86.1669 21.9486C85.8755 21.6228 85.7297 21.2285 85.7297 20.7656C85.7297 20.3027 85.8755 19.9083 86.1669 19.5826C86.4755 19.2568 86.8356 19.0939 87.247 19.0939C87.6757 19.0939 88.0271 19.2568 88.3015 19.5826C88.5929 19.9083 88.7387 20.3027 88.7387 20.7656C88.7387 21.2285 88.5844 21.6228 88.2757 21.9486C87.9843 22.2572 87.6328 22.4115 87.2213 22.4115Z" fill="white"/>
<path d="M94.1104 22.2427C94.6468 22.2427 95.1178 22.0962 95.5235 21.8032C95.9337 21.5057 96.1974 21.1067 96.3146 20.6064V19.3555C96.2921 19.3555 96.1546 19.3667 95.9022 19.3893C95.6543 19.4118 95.492 19.4253 95.4153 19.4299C94.4372 19.5155 93.7542 19.6755 93.3666 19.9099C92.9834 20.1443 92.7918 20.5207 92.7918 21.0391C92.7918 21.4358 92.909 21.7356 93.1434 21.9384C93.3778 22.1413 93.7001 22.2427 94.1104 22.2427ZM96.5648 23C96.4972 22.7115 96.4318 22.4005 96.3687 22.0669C95.9585 22.4771 95.5731 22.7611 95.2125 22.9189C94.8519 23.0766 94.4281 23.1555 93.9413 23.1555C93.2471 23.1555 92.6882 22.9752 92.2644 22.6146C91.8452 22.2495 91.6356 21.7266 91.6356 21.0459C91.6356 20.2886 91.9218 19.7274 92.4943 19.3622C93.0713 18.9971 93.9007 18.7695 94.9826 18.6793C95.1314 18.6658 95.3545 18.6478 95.652 18.6252C95.954 18.5982 96.1794 18.5779 96.3282 18.5644V17.9085C96.3282 17.3856 96.2065 16.9979 95.963 16.7455C95.7196 16.4931 95.3365 16.3668 94.8136 16.3668C94.0833 16.3668 93.3463 16.5471 92.6025 16.9078C92.58 16.8537 92.5214 16.6982 92.4267 16.4412C92.332 16.1798 92.2825 16.0445 92.2779 16.0355C92.607 15.8507 92.9969 15.7042 93.4477 15.596C93.903 15.4833 94.365 15.427 94.8338 15.427C95.7579 15.427 96.4228 15.6298 96.8285 16.0355C97.2387 16.4367 97.4438 17.1219 97.4438 18.0911V23H96.5648ZM99.1342 20.5252V15.5825H100.27V20.5388C100.27 20.8633 100.315 21.1383 100.405 21.3637C100.5 21.5891 100.633 21.7649 100.804 21.8911C100.98 22.0128 101.176 22.1007 101.393 22.1548C101.614 22.2089 101.866 22.2359 102.15 22.2359C102.736 22.2359 103.191 22.1075 103.516 21.8505C103.845 21.5936 104.009 21.1563 104.009 20.5388V15.5825H105.145V20.5252C105.145 20.9039 105.091 21.2442 104.983 21.5462C104.875 21.8483 104.728 22.1007 104.544 22.3036C104.363 22.5019 104.145 22.6664 103.888 22.7972C103.631 22.9279 103.358 23.0225 103.07 23.0811C102.786 23.1397 102.479 23.169 102.15 23.169C101.825 23.169 101.519 23.1397 101.23 23.0811C100.942 23.0225 100.667 22.9279 100.405 22.7972C100.148 22.6619 99.9254 22.4951 99.736 22.2968C99.5512 22.0939 99.4047 21.8415 99.2965 21.5395C99.1883 21.2375 99.1342 20.8994 99.1342 20.5252ZM109.196 23.1352C108.465 23.1352 107.947 22.9572 107.64 22.6011C107.334 22.245 107.172 21.6702 107.154 20.8768V16.4209H106.051L106.099 15.6772L107.147 15.5825L107.532 13.8853L108.276 13.8583V15.5825H110.338V16.4209H108.276V20.674C108.276 21.2375 108.362 21.6342 108.533 21.864C108.704 22.0939 108.997 22.2089 109.412 22.2089C109.561 22.2089 109.883 22.1728 110.379 22.1007L110.426 22.9932C109.89 23.0879 109.48 23.1352 109.196 23.1352ZM116.627 23V18.517C116.627 17.7733 116.507 17.2323 116.268 16.8942C116.034 16.5562 115.621 16.3871 115.031 16.3871C114.463 16.3871 113.983 16.5291 113.591 16.8131C113.203 17.0971 112.951 17.4645 112.833 17.9153C112.793 18.2533 112.772 18.6297 112.772 19.0444V23H111.643V12.702L112.772 12.6344V15.6501C112.772 15.907 112.763 16.2248 112.745 16.6035C113.381 15.8191 114.224 15.427 115.274 15.427C116.929 15.427 117.756 16.3984 117.756 18.3412V23H116.627ZM119.974 19.3081C119.974 20.1872 120.167 20.8926 120.555 21.4245C120.947 21.9519 121.518 22.2157 122.266 22.2157C123.005 22.2157 123.562 21.9519 123.936 21.4245C124.315 20.8971 124.504 20.1872 124.504 19.2946C124.504 18.3886 124.317 17.6763 123.943 17.1579C123.573 16.635 123.007 16.3736 122.246 16.3736C121.506 16.3736 120.943 16.6396 120.555 17.1715C120.167 17.7034 119.974 18.4156 119.974 19.3081ZM125.674 19.2879C125.674 20.4373 125.367 21.3704 124.754 22.0872C124.141 22.7994 123.294 23.1555 122.212 23.1555C121.17 23.1555 120.341 22.7949 119.723 22.0737C119.11 21.3524 118.804 20.4261 118.804 19.2946C118.804 18.1406 119.113 17.2075 119.73 16.4953C120.348 15.7831 121.195 15.427 122.273 15.427C123.332 15.427 124.164 15.7853 124.768 16.5021C125.372 17.2143 125.674 18.1429 125.674 19.2879ZM130.603 15.5149C130.806 15.5149 130.991 15.5284 131.157 15.5554L131.117 16.5967C130.909 16.5607 130.729 16.5426 130.576 16.5426C129.945 16.5426 129.431 16.7635 129.034 17.2053C128.642 17.6425 128.446 18.1857 128.446 18.8348V23H127.317C127.312 18.4472 127.31 15.9747 127.31 15.5825H128.25L128.358 16.9145C128.615 16.4953 128.942 16.1572 129.338 15.9003C129.735 15.6433 130.157 15.5149 130.603 15.5149Z" fill="white"/>
</svg>
