<svg width="232" height="51" viewBox="0 0 232 51" fill="none" xmlns="http://www.w3.org/2000/svg">
<path d="M18.3365 27.2155C18.3365 25.8808 18.1545 24.9253 17.7905 24.349C17.4265 23.7727 16.8502 23.4238 16.0615 23.3025C15.2728 23.1812 14.2263 23.1508 12.922 23.2115L9.6005 23.348V33.7675C9.6005 34.5865 9.58533 35.2842 9.555 35.8605C9.555 36.4368 9.52467 36.9222 9.464 37.3165L18.1545 37.18C19.4892 37.1497 20.6418 36.9373 21.6125 36.543C22.5832 36.1183 23.3415 35.3903 23.8875 34.359C24.4335 33.3277 24.7065 31.9172 24.7065 30.1275H26.2535L25.9805 39H2.5025V37.4985C3.65517 37.4378 4.44383 37.18 4.8685 36.725C5.29317 36.2397 5.52067 35.5875 5.551 34.7685C5.61167 33.9192 5.642 32.9637 5.642 31.902V12.246C5.642 11.6393 5.65717 11.063 5.6875 10.517C5.71783 9.94066 5.74817 9.425 5.7785 8.97C5.2325 9.00033 4.6865 9.03066 4.1405 9.061C3.5945 9.09133 3.0485 9.12167 2.5025 9.152V7.15H24.388L24.6155 15.1125H23.114C23.114 13.3228 22.841 11.973 22.295 11.063C21.749 10.1227 21.0058 9.50083 20.0655 9.1975C19.1555 8.86383 18.1242 8.71217 16.9715 8.7425L13.0585 8.8335C11.9362 8.86383 11.1323 9.07616 10.647 9.4705C10.1617 9.86483 9.85833 10.4563 9.737 11.245C9.646 12.0033 9.6005 13.0043 9.6005 14.248V21.528L18.1545 21.5735L17.836 17.6605H19.838V27.2155H18.3365ZM39.6337 39.728C38.117 39.728 36.7672 39.5157 35.5842 39.091C34.4012 38.6967 33.4305 38.2417 32.6722 37.726L32.8542 39.3185H30.9432L30.6702 31.4925H32.0807C32.1414 32.7362 32.4902 33.8585 33.1272 34.8595C33.7642 35.8302 34.5832 36.5885 35.5842 37.1345C36.5852 37.6805 37.662 37.9535 38.8147 37.9535C39.6034 37.9535 40.3769 37.8322 41.1352 37.5895C41.8935 37.3165 42.5305 36.9222 43.0462 36.4065C43.5619 35.8605 43.8197 35.178 43.8197 34.359C43.8197 33.5097 43.5619 32.812 43.0462 32.266C42.5609 31.6897 41.9087 31.1892 41.0897 30.7645C40.2707 30.3398 39.391 29.9455 38.4507 29.5815C37.5407 29.2175 36.6307 28.8383 35.7207 28.444C34.8107 28.0497 33.9614 27.5795 33.1727 27.0335C32.4144 26.4875 31.8077 25.8202 31.3527 25.0315C30.8977 24.2428 30.6702 23.2722 30.6702 22.1195C30.6702 21.4825 30.7915 20.7848 31.0342 20.0265C31.2769 19.2682 31.6864 18.5553 32.2627 17.888C32.839 17.1903 33.6277 16.6292 34.6287 16.2045C35.6297 15.7495 36.9037 15.522 38.4507 15.522C39.2697 15.522 40.1797 15.6585 41.1807 15.9315C42.1817 16.2045 43.1524 16.7202 44.0927 17.4785L44.0017 15.7495H45.9127V23.712H44.4567C44.396 22.6503 44.1534 21.6342 43.7287 20.6635C43.304 19.6625 42.6822 18.8435 41.8632 18.2065C41.0442 17.5392 39.9825 17.2055 38.6782 17.2055C37.2829 17.2055 36.1909 17.5543 35.4022 18.252C34.6135 18.9497 34.2192 19.7535 34.2192 20.6635C34.2192 21.6038 34.5074 22.3925 35.0837 23.0295C35.6904 23.6362 36.4639 24.167 37.4042 24.622C38.3445 25.077 39.3455 25.5168 40.4072 25.9415C41.5599 26.4268 42.6822 26.9577 43.7742 27.534C44.8662 28.1103 45.761 28.8383 46.4587 29.718C47.1564 30.5673 47.5052 31.6745 47.5052 33.0395C47.5052 34.5562 47.1109 35.815 46.3222 36.816C45.5639 37.817 44.578 38.545 43.3647 39C42.1817 39.4853 40.938 39.728 39.6337 39.728ZM62.4697 39.728C60.4374 39.728 58.5567 39.273 56.8277 38.363C55.1291 37.4227 53.7641 36.088 52.7327 34.359C51.7317 32.5997 51.2312 30.4915 51.2312 28.0345C51.2312 26.4572 51.5194 24.9253 52.0957 23.439C52.6721 21.9527 53.4759 20.618 54.5072 19.435C55.5689 18.2217 56.8277 17.2662 58.2837 16.5685C59.7397 15.8708 61.3474 15.522 63.1067 15.522C64.8054 15.522 66.2766 15.7798 67.5202 16.2955C68.7942 16.8112 69.7801 17.4937 70.4777 18.343C71.1754 19.1923 71.5242 20.1175 71.5242 21.1185C71.5242 21.7858 71.3422 22.3622 70.9782 22.8475C70.6142 23.3025 70.0834 23.53 69.3857 23.53C68.6274 23.5603 68.0814 23.3328 67.7477 22.8475C67.4444 22.3318 67.2927 21.8768 67.2927 21.4825C67.2927 21.1792 67.3382 20.8758 67.4292 20.5725C67.5202 20.2388 67.7022 19.9355 67.9752 19.6625C67.7326 18.9345 67.3079 18.4037 66.7012 18.07C66.0946 17.706 65.4576 17.4785 64.7902 17.3875C64.1532 17.2662 63.6224 17.2055 63.1977 17.2055C61.1351 17.2055 59.3909 18.0397 57.9652 19.708C56.5699 21.346 55.8722 23.7423 55.8722 26.897C55.8722 28.9293 56.1907 30.7342 56.8277 32.3115C57.4951 33.8888 58.4202 35.1325 59.6032 36.0425C60.7862 36.9222 62.1512 37.362 63.6982 37.362C65.1239 37.362 66.4889 36.9828 67.7932 36.2245C69.0976 35.4662 70.1137 34.541 70.8417 33.449L72.0247 34.359C71.2361 35.633 70.2806 36.6643 69.1582 37.453C68.0662 38.2417 66.9287 38.818 65.7457 39.182C64.5931 39.546 63.5011 39.728 62.4697 39.728ZM89.3272 39C89.2362 38.4843 89.1755 38.0293 89.1452 37.635C89.1148 37.2407 89.0693 36.8312 89.0087 36.4065C87.9773 37.4378 86.855 38.2568 85.6417 38.8635C84.4587 39.4398 83.1998 39.728 81.8652 39.728C79.5598 39.728 77.846 39.2123 76.7237 38.181C75.6013 37.1193 75.0402 35.8302 75.0402 34.3135C75.0402 32.9182 75.4648 31.72 76.3142 30.719C77.1938 29.6877 78.3162 28.8535 79.6812 28.2165C81.0765 27.5492 82.578 27.0638 84.1857 26.7605C85.8237 26.4268 87.401 26.2752 88.9177 26.3055V23.4845C88.9177 22.4228 88.8267 21.4218 88.6447 20.4815C88.4627 19.5412 88.0683 18.7677 87.4617 18.161C86.855 17.5543 85.8843 17.2358 84.5497 17.2055C83.67 17.1752 82.76 17.342 81.8197 17.706C80.9097 18.07 80.2423 18.6918 79.8177 19.5715C80.0603 19.8142 80.212 20.1023 80.2727 20.436C80.3637 20.7393 80.4092 21.0275 80.4092 21.3005C80.4092 21.6645 80.2575 22.0892 79.9542 22.5745C79.6508 23.0295 79.12 23.2418 78.3617 23.2115C77.7247 23.2115 77.2393 22.9992 76.9057 22.5745C76.572 22.1195 76.4052 21.5887 76.4052 20.982C76.4052 19.9507 76.7843 19.0255 77.5427 18.2065C78.3313 17.3875 79.4082 16.7353 80.7732 16.25C82.1382 15.7647 83.6852 15.522 85.4142 15.522C87.9622 15.522 89.8428 16.2045 91.0562 17.5695C92.2695 18.9042 92.861 21.0275 92.8307 23.9395C92.8307 25.0618 92.8307 26.1993 92.8307 27.352C92.8307 28.4743 92.8155 29.6118 92.7852 30.7645C92.7852 31.8868 92.7852 33.0243 92.7852 34.177C92.7852 34.6623 92.77 35.1477 92.7397 35.633C92.7093 36.1183 92.6638 36.6643 92.6032 37.271C93.1492 37.2407 93.68 37.2103 94.1957 37.18C94.7417 37.1497 95.2877 37.1193 95.8337 37.089V39H89.3272ZM88.9177 27.8525C87.8863 27.8828 86.7943 28.0193 85.6417 28.262C84.5193 28.4743 83.4728 28.808 82.5022 29.263C81.5618 29.718 80.7883 30.3247 80.1817 31.083C79.6053 31.811 79.3323 32.7058 79.3627 33.7675C79.4233 34.8898 79.7873 35.7392 80.4547 36.3155C81.1523 36.8615 81.9713 37.1345 82.9117 37.1345C84.1553 37.1345 85.2322 36.907 86.1422 36.452C87.0825 35.9667 88.0077 35.2993 88.9177 34.45C88.8873 34.1163 88.8722 33.7523 88.8722 33.358C88.8722 32.9637 88.8722 32.5542 88.8722 32.1295C88.8722 31.9778 88.8722 31.4925 88.8722 30.6735C88.9025 29.8545 88.9177 28.9142 88.9177 27.8525ZM98.5466 50.6025V49.2375C99.4869 49.2375 100.139 48.9948 100.503 48.5095C100.867 48.0545 101.079 47.4023 101.14 46.553C101.201 45.734 101.231 44.7785 101.231 43.6865L101.322 21.71C101.322 21.2247 101.322 20.7393 101.322 20.254C101.352 19.7687 101.413 19.2682 101.504 18.7525C100.958 18.7828 100.412 18.8132 99.8661 18.8435C99.3504 18.8738 98.8196 18.9042 98.2736 18.9345V17.0235C99.6083 17.0235 100.609 16.9628 101.277 16.8415C101.974 16.7202 102.475 16.5685 102.778 16.3865C103.112 16.2045 103.385 16.0073 103.597 15.795H104.962C104.992 16.0983 105.023 16.4623 105.053 16.887C105.083 17.2813 105.114 17.7363 105.144 18.252C106.054 17.433 107.131 16.7808 108.375 16.2955C109.649 15.7798 110.923 15.522 112.197 15.522C113.956 15.522 115.594 15.977 117.111 16.887C118.627 17.797 119.856 19.1013 120.796 20.8C121.736 22.4683 122.207 24.4703 122.207 26.806C122.207 29.3843 121.661 31.6442 120.569 33.5855C119.507 35.5268 118.096 37.0435 116.337 38.1355C114.578 39.1972 112.667 39.728 110.604 39.728C109.542 39.728 108.557 39.5915 107.647 39.3185C106.767 39.0758 105.933 38.7118 105.144 38.2265V45.7795C105.144 46.3862 105.129 46.917 105.099 47.372C105.099 47.8573 105.053 48.3578 104.962 48.8735C105.447 48.8432 105.918 48.8128 106.373 48.7825C106.858 48.7825 107.343 48.7673 107.829 48.737V50.6025H98.5466ZM110.513 37.908C111.969 37.908 113.213 37.4682 114.244 36.5885C115.306 35.6785 116.11 34.45 116.656 32.903C117.232 31.3257 117.52 29.536 117.52 27.534C117.52 25.896 117.277 24.3338 116.792 22.8475C116.337 21.3308 115.594 20.1023 114.563 19.162C113.562 18.2217 112.227 17.7515 110.559 17.7515C109.527 17.7515 108.526 18.0093 107.556 18.525C106.615 19.0103 105.827 19.6018 105.19 20.2995C105.19 20.4208 105.19 20.6028 105.19 20.8455C105.22 21.0578 105.235 21.4522 105.235 22.0285C105.235 22.5745 105.235 23.4087 105.235 24.531C105.235 25.623 105.22 27.1093 105.19 28.99C105.19 30.8707 105.19 33.2518 105.19 36.1335C105.948 36.7098 106.767 37.1497 107.647 37.453C108.557 37.7563 109.512 37.908 110.513 37.908ZM137.116 39.728C135.023 39.728 133.127 39.2427 131.429 38.272C129.76 37.271 128.441 35.8757 127.47 34.086C126.499 32.266 126.014 30.1275 126.014 27.6705C126.014 25.5472 126.484 23.5603 127.425 21.71C128.395 19.8597 129.745 18.3733 131.474 17.251C133.203 16.0983 135.205 15.522 137.48 15.522C138.754 15.522 139.937 15.7343 141.029 16.159C142.151 16.5533 143.137 17.1752 143.987 18.0245C144.836 18.8435 145.503 19.89 145.989 21.164C146.474 22.4077 146.717 23.8788 146.717 25.5775L130.701 25.8505C130.701 28.1558 130.943 30.1882 131.429 31.9475C131.944 33.6765 132.763 35.0263 133.886 35.997C135.008 36.9373 136.449 37.4075 138.208 37.4075C139.148 37.4075 140.104 37.2407 141.075 36.907C142.076 36.5733 143.001 36.1183 143.85 35.542C144.699 34.9657 145.382 34.3287 145.898 33.631L146.99 34.541C146.171 35.815 145.185 36.8312 144.032 37.5895C142.879 38.3478 141.696 38.8938 140.483 39.2275C139.27 39.5612 138.147 39.728 137.116 39.728ZM130.837 23.9395H142.44C142.44 22.8475 142.273 21.801 141.939 20.8C141.636 19.7687 141.12 18.9345 140.392 18.2975C139.664 17.6302 138.709 17.2965 137.526 17.2965C135.766 17.2965 134.295 17.8273 133.112 18.889C131.959 19.9203 131.201 21.6038 130.837 23.9395ZM154.315 39.728C153.617 39.728 152.995 39.455 152.449 38.909C151.934 38.3327 151.676 37.635 151.676 36.816C151.676 35.997 151.949 35.2993 152.495 34.723C153.041 34.1467 153.663 33.8585 154.36 33.8585C155.119 33.8585 155.74 34.1467 156.226 34.723C156.741 35.2993 156.999 35.997 156.999 36.816C156.999 37.635 156.726 38.3327 156.18 38.909C155.634 39.455 155.012 39.728 154.315 39.728Z" fill="white"/>
<path d="M165.503 38.6602C166.452 38.6602 167.285 38.401 168.003 37.8826C168.729 37.3562 169.195 36.6504 169.403 35.7651V33.552C169.363 33.552 169.12 33.5719 168.673 33.6118C168.234 33.6517 167.947 33.6756 167.812 33.6836C166.081 33.8351 164.873 34.1182 164.187 34.533C163.509 34.9477 163.17 35.6136 163.17 36.5308C163.17 37.2326 163.378 37.7629 163.792 38.1218C164.207 38.4807 164.777 38.6602 165.503 38.6602ZM169.845 40C169.726 39.4896 169.61 38.9393 169.499 38.3491C168.773 39.0749 168.091 39.5773 167.453 39.8564C166.815 40.1356 166.065 40.2751 165.204 40.2751C163.976 40.2751 162.987 39.9561 162.237 39.3181C161.495 38.6721 161.125 37.747 161.125 36.5427C161.125 35.2029 161.631 34.21 162.644 33.564C163.665 32.918 165.132 32.5152 167.046 32.3557C167.309 32.3318 167.704 32.2999 168.23 32.26C168.765 32.2122 169.164 32.1763 169.427 32.1523V30.9919C169.427 30.0668 169.211 29.3809 168.781 28.9343C168.35 28.4877 167.672 28.2644 166.747 28.2644C165.455 28.2644 164.151 28.5834 162.835 29.2214C162.795 29.1257 162.692 28.8506 162.524 28.396C162.357 27.9334 162.269 27.6942 162.261 27.6782C162.843 27.3512 163.533 27.092 164.331 26.9006C165.136 26.7013 165.954 26.6016 166.783 26.6016C168.418 26.6016 169.594 26.9604 170.312 27.6782C171.038 28.388 171.401 29.6003 171.401 31.3149V40H169.845ZM174.391 35.6216V26.8767H176.401V35.6455C176.401 36.2197 176.481 36.7062 176.64 37.105C176.808 37.5037 177.043 37.8148 177.346 38.0381C177.657 38.2534 178.004 38.4089 178.387 38.5046C178.778 38.6003 179.224 38.6482 179.727 38.6482C180.764 38.6482 181.569 38.4209 182.143 37.9663C182.726 37.5117 183.017 36.7381 183.017 35.6455V26.8767H185.026V35.6216C185.026 36.2915 184.931 36.8936 184.739 37.428C184.548 37.9623 184.289 38.4089 183.962 38.7678C183.643 39.1187 183.256 39.4098 182.801 39.6411C182.347 39.8724 181.864 40.0399 181.354 40.1436C180.851 40.2472 180.309 40.2991 179.727 40.2991C179.153 40.2991 178.61 40.2472 178.1 40.1436C177.589 40.0399 177.103 39.8724 176.64 39.6411C176.186 39.4019 175.791 39.1068 175.456 38.7559C175.129 38.397 174.87 37.9504 174.678 37.416C174.487 36.8817 174.391 36.2835 174.391 35.6216ZM192.192 40.2393C190.9 40.2393 189.983 39.9242 189.441 39.2942C188.898 38.6641 188.611 37.6473 188.579 36.2437V28.3601H186.629L186.713 27.0442L188.567 26.8767L189.249 23.874L190.565 23.8262V26.8767H194.214V28.3601H190.565V35.8848C190.565 36.8817 190.717 37.5835 191.02 37.9902C191.323 38.397 191.841 38.6003 192.575 38.6003C192.838 38.6003 193.408 38.5365 194.286 38.4089L194.369 39.988C193.42 40.1555 192.695 40.2393 192.192 40.2393ZM205.339 40V32.0686C205.339 30.7527 205.128 29.7957 204.705 29.1975C204.291 28.5994 203.561 28.3003 202.516 28.3003C201.511 28.3003 200.662 28.5515 199.968 29.054C199.282 29.5564 198.836 30.2064 198.628 31.0039C198.556 31.6021 198.521 32.268 198.521 33.0017V40H196.523V21.7805L198.521 21.6609V26.9963C198.521 27.4509 198.505 28.0132 198.473 28.6831C199.597 27.2954 201.089 26.6016 202.947 26.6016C205.874 26.6016 207.337 28.3202 207.337 31.7576V40H205.339ZM211.261 33.4683C211.261 35.0234 211.604 36.2716 212.29 37.2126C212.984 38.1458 213.993 38.6123 215.316 38.6123C216.624 38.6123 217.609 38.1458 218.271 37.2126C218.941 36.2795 219.276 35.0234 219.276 33.4443C219.276 31.8413 218.945 30.5812 218.283 29.6641C217.629 28.7389 216.628 28.2764 215.281 28.2764C213.973 28.2764 212.976 28.7469 212.29 29.688C211.604 30.6291 211.261 31.8892 211.261 33.4683ZM221.346 33.4324C221.346 35.4661 220.803 37.1169 219.719 38.385C218.634 39.6451 217.135 40.2751 215.221 40.2751C213.378 40.2751 211.911 39.6371 210.818 38.3611C209.734 37.085 209.191 35.4461 209.191 33.4443C209.191 31.4027 209.738 29.7518 210.83 28.4917C211.923 27.2316 213.422 26.6016 215.328 26.6016C217.203 26.6016 218.674 27.2356 219.743 28.5037C220.811 29.7638 221.346 31.4067 221.346 33.4324ZM230.067 26.7571C230.426 26.7571 230.753 26.781 231.048 26.8289L230.976 28.6711C230.609 28.6073 230.29 28.5754 230.019 28.5754C228.902 28.5754 227.993 28.9662 227.291 29.7478C226.597 30.5214 226.25 31.4824 226.25 32.6309V40H224.253C224.245 31.945 224.241 27.5706 224.241 26.8767H225.904L226.095 29.2334C226.55 28.4917 227.128 27.8936 227.83 27.439C228.531 26.9844 229.277 26.7571 230.067 26.7571Z" fill="white"/>
</svg>
